#N canvas 575 37 432 372 10;
#X declare -lib mrpeach;
#X obj 4 215 sendOSC;
#X msg 4 138 connect localhost 8000;
#X msg 19 164 disconnect;
#X obj 4 89 tgl 15 0 empty empty empty 17 7 0 10 -262144 -1 -1 1 1
;
#X obj 4 111 sel 1;
#X text 2 70 connect;
#X obj 29 190 r sOSC;
#X obj 199 176 s sOSC;
#X obj 2 36 import mrpeach;
#X text 3 255 OSC receive from Processing;
#X text 0 14 import osc library;
#X obj 3 322 print;
#X obj 3 298 unpackOSC;
#X obj 199 26 vsl 8 64 0 127 0 0 empty empty empty 0 -9 0 10 -262144
-1 -1 2500 1;
#X obj 230 26 vsl 8 64 0 127 0 0 empty empty empty 0 -9 0 10 -262144
-1 -1 0 1;
#X msg 199 124 send /pd/trigger/0 \$1;
#X msg 230 148 send /pd/trigger/1 \$1;
#X obj 199 102 i;
#X obj 230 102 i;
#X obj 3 274 udpreceive 8001;
#X connect 1 0 0 0;
#X connect 2 0 0 0;
#X connect 3 0 4 0;
#X connect 4 0 1 0;
#X connect 4 1 2 0;
#X connect 6 0 0 0;
#X connect 12 0 11 0;
#X connect 13 0 17 0;
#X connect 14 0 18 0;
#X connect 15 0 7 0;
#X connect 16 0 7 0;
#X connect 17 0 15 0;
#X connect 18 0 16 0;
#X connect 19 0 12 0;
