#N canvas 272 278 723 210 10;
#X obj 44 38 loadbang;
#X msg 20 120 devices;
#X msg 44 63 open 2;
#X msg 99 63 close;
#X msg 154 63 1;
#X obj 99 160 comport 2 9600;
#X msg 188 63 0;
#X obj 222 63 tgl 15 0 empty empty empty 17 7 0 10 -262144 -1 -1 0
1;
#X text 152 23 1: LED点灯;
#X text 152 40 0: LED消灯;
#X text 96 181 注意:通信速度をarduinoと合わせないと動作しない
;
#X msg 251 62 1000;
#X obj 421 172 s sOSC;
#X obj 421 22 vsl 8 64 0 127 0 0 empty empty empty 0 -9 0 10 -262144
-1 -1 0 1;
#X obj 452 22 vsl 8 64 0 127 0 0 empty empty empty 0 -9 0 10 -262144
-1 -1 0 1;
#X msg 421 120 send /pd/trigger/0 \$1;
#X msg 452 144 send /pd/trigger/1 \$1;
#X obj 421 98 i;
#X obj 452 98 i;
#X connect 0 0 2 0;
#X connect 1 0 5 0;
#X connect 2 0 5 0;
#X connect 3 0 5 0;
#X connect 4 0 5 0;
#X connect 6 0 5 0;
#X connect 7 0 5 0;
#X connect 11 0 5 0;
#X connect 13 0 17 0;
#X connect 14 0 18 0;
#X connect 15 0 12 0;
#X connect 16 0 12 0;
#X connect 17 0 15 0;
#X connect 18 0 16 0;
