#N canvas 493 275 411 223 10;
#X obj 44 38 loadbang;
#X msg 20 120 devices;
#X msg 44 63 open 2;
#X msg 99 63 close;
#X msg 154 63 1;
#X obj 99 160 comport 2 9600;
#X msg 188 63 0;
#X obj 222 63 tgl 15 0 empty empty empty 17 7 0 10 -262144 -1 -1 0
1;
#X text 152 23 1: LED点灯;
#X text 152 40 0: LED消灯;
#X text 96 181 注意:通信速度をarduinoと合わせないと動作しない
;
#X connect 0 0 2 0;
#X connect 1 0 5 0;
#X connect 2 0 5 0;
#X connect 3 0 5 0;
#X connect 4 0 5 0;
#X connect 6 0 5 0;
#X connect 7 0 5 0;
