#N canvas 457 209 723 434 10;
#X obj 5 18 bng 15 250 50 0 empty empty open 20 6 0 10 -262144 -1 -1
;
#N canvas 124 43 450 300 (subpatch) 0;
#X array \$0_deck 100 float 0;
#X coords 0 -1 99 1 100 65 1 0 0;
#X restore 4 52 graph;
#N canvas 658 147 296 455 readfile 0;
#X obj -103 174 soundfiler;
#X obj -103 51 openpanel;
#X obj -103 123 pack s f;
#X msg -103 148 read -resize \$1 \$2_deck;
#X floatatom -103 210 8 0 0 2 サンプル数 - -;
#X obj -103 75 t s b;
#X floatatom -75 292 8 0 0 2 1スライスのサンプル数 - -;
#X obj -46 328 expr ($f1/44100)*1000;
#X floatatom -46 362 8 0 0 2 msec - -;
#X text -47 308 msec単位に換算;
#X obj -103 390 pack f f f;
#X obj -103 235 t f f;
#X floatatom -48 235 5 1 8 2 slice - -;
#X obj -103 23 inlet;
#X obj -103 418 outlet;
#X obj -75 259 / 8;
#X obj -28 417 outlet;
#X obj -58 99 \$0;
#X connect 0 0 4 0;
#X connect 1 0 5 0;
#X connect 2 0 3 0;
#X connect 3 0 0 0;
#X connect 4 0 11 0;
#X connect 5 0 2 0;
#X connect 5 0 16 0;
#X connect 5 1 17 0;
#X connect 6 0 7 0;
#X connect 6 0 10 1;
#X connect 7 0 8 0;
#X connect 8 0 10 2;
#X connect 10 0 14 0;
#X connect 11 0 10 0;
#X connect 11 1 15 0;
#X connect 12 0 15 1;
#X connect 13 0 1 0;
#X connect 15 0 6 0;
#X connect 17 0 2 1;
#X restore 109 160 pd readfile;
#X text 106 139 ファイルの読み込み;
#X obj 172 184 splitfilename;
#X symbolatom 247 207 20 0 0 0 file_name - -;
#X floatatom 109 229 15 0 0 0 size - -;
#X obj 4 361 tabread \$0_deck;
#X floatatom 4 336 15 0 0 0 index - -;
#X floatatom 4 386 15 0 0 0 value - -;
#X obj 7 119 hsl 95 8 0 127 0 0 empty empty empty -2 -8 0 10 -262144
-1 -1 0 1;
#X obj 109 252 / 127;
#X floatatom 109 276 15 0 0 0 sample - -;
#X obj 4 412 outlet;
#X obj -111 232 +;
#X msg -111 209 1;
#X obj -83 232 expr if($f1>$f2 \, -1 \, $f1);
#X obj -111 307 / 1;
#X obj -111 329 * 127;
#X text -107 188 iterator;
#X text -114 348 progress;
#X obj 317 81 tabplay~ \$0_deck;
#X obj 317 59 bng 15 250 50 0 empty empty empty 17 7 0 10 -262144 -1
-1;
#X obj 428 166 rfft~;
#X obj 428 193 *~;
#X obj 455 192 *~;
#X obj 428 217 +~;
#X obj 428 243 sqrt~;
#X obj 470 243 bang~;
#X obj 428 275 tabwrite~ \$0_spectrum;
#N canvas 145 28 450 278 (subpatch) 0;
#X array \$0_spectrum 64 float 1;
#A 0 0.0783899 0.114255 0.309232 0.0885149 0.110694 0.0562923 0.0122313
0.0248096 0.0176297 0.0359132 0.0364579 0.0214782 0.0106179 0.0162785
0.0129504 0.0201847 0.0127644 0.0127731 0.0133512 0.00901599 0.00902226
0.0132371 0.0106497 0.0116035 0.0111426 0.0115998 0.0106091 0.00649922
0.00798723 0.00801831 0.00765548 0.0078366 0.00762272 0 0 0 0 0 0 0
0 0 0 0 0 0 0 0 0 0 0 0 0 0 0 0 0 0 0 0 0 0 0 0;
#X coords 0 1 64 0 100 65 1 0 0;
#X restore 110 52 graph;
#X obj 428 139 hip~ 1000;
#X text 428 113 analysis;
#X obj -111 134 bang~;
#X obj -111 161 spigot;
#X msg -69 134 1;
#X obj 431 79 block~ 64;
#X connect 0 0 2 0;
#X connect 2 0 6 0;
#X connect 2 0 22 0;
#X connect 2 0 35 0;
#X connect 2 1 4 0;
#X connect 4 1 5 0;
#X connect 6 0 11 0;
#X connect 6 0 16 1;
#X connect 6 0 17 1;
#X connect 7 0 9 0;
#X connect 8 0 7 0;
#X connect 9 0 13 0;
#X connect 11 0 12 0;
#X connect 14 0 16 0;
#X connect 14 0 17 0;
#X connect 14 0 8 0;
#X connect 15 0 14 0;
#X connect 16 0 14 1;
#X connect 17 0 18 0;
#X connect 18 0 10 0;
#X connect 21 0 31 0;
#X connect 21 1 22 0;
#X connect 22 0 21 0;
#X connect 23 0 24 0;
#X connect 23 0 24 1;
#X connect 23 1 25 0;
#X connect 23 1 25 1;
#X connect 24 0 26 0;
#X connect 25 0 26 1;
#X connect 26 0 27 0;
#X connect 27 0 29 0;
#X connect 28 0 29 0;
#X connect 31 0 23 0;
#X connect 33 0 34 0;
#X connect 34 0 15 0;
#X connect 35 0 34 1;
#X coords 0 -1 1 1 213 130 1 0 0;
