#N canvas 136 122 1132 586 10;
#X declare -lib mrpeach;
#X msg 387 489 disconnect;
#X obj 366 531 sendOSC;
#X msg 366 464 connect localhost 7702;
#X obj 366 439 loadbang;
#X obj 62 37 metro 100;
#X obj 62 15 tgl 15 0 empty empty empty 17 7 0 10 -262144 -1 -1 1 1
;
#X floatatom 107 81 5 0 0 0 - - -;
#X obj 62 105 sin;
#X obj 62 134 vsl 8 64 -1 1 0 0 empty empty empty 0 -9 0 10 -262144
-1 -1 121 1;
#X msg 62 474 send /noi \$1;
#X floatatom 223 81 5 0 0 0 - - -;
#X obj 178 105 sin;
#X obj 178 134 vsl 8 64 -1 1 0 0 empty empty empty 0 -9 0 10 -262144
-1 -1 423 1;
#X obj 178 81 + 0.1;
#X msg 178 60 0.2;
#X msg 148 474 send /weight \$1;
#X floatatom 325 80 5 0 0 0 - - -;
#X obj 286 104 sin;
#X obj 286 133 vsl 8 64 -1 1 0 0 empty empty empty 0 -9 0 10 -262144
-1 -1 2385 1;
#X msg 256 473 send /col \$1;
#X obj 286 80 + 0.2;
#X obj 62 207 expr $f1/2 + 0.5;
#X obj 62 231 * 127;
#X obj 62 252 i;
#X floatatom 62 274 5 0 0 0 - - -;
#X obj 178 207 expr $f1/2 + 0.5;
#X obj 178 231 * 127;
#X obj 178 252 i;
#X floatatom 178 274 5 0 0 0 - - -;
#X obj 286 206 expr $f1/2 + 0.5;
#X obj 286 230 * 127;
#X obj 286 251 i;
#X floatatom 286 273 5 0 0 0 - - -;
#X msg 286 59 0.6;
#X obj 395 10 import mrpeach;
#X obj 553 26 udpreceive 9001;
#X obj 553 52 unpackOSC;
#X obj 553 77 routeOSC /live/track/meter;
#X obj 463 201 vsl 8 64 0 1 0 0 empty empty empty 0 -9 0 10 -262144
-1 -1 0 1;
#X obj 463 274 * 127;
#X obj 463 295 i;
#X floatatom 463 317 5 0 0 0 - - -;
#X msg 463 342 send /beat \$1;
#X floatatom 676 133 5 0 0 0 - - -;
#X floatatom 745 133 5 0 0 0 - - -;
#X obj 676 104 unpack 0 0 0;
#X obj 719 230 spigot;
#X obj 676 194 == 3;
#X obj 719 262 vsl 8 64 0 1 0 0 empty empty empty 0 -9 0 10 -262144
-1 -1 212 1;
#X obj 719 194 f;
#X obj 676 155 t b f;
#X obj 719 336 * 127;
#X obj 719 357 i;
#X floatatom 719 379 5 0 0 0 - - -;
#X msg 719 402 send /piano \$1;
#X floatatom 553 131 5 0 0 0 - - -;
#X floatatom 622 131 5 0 0 0 - - -;
#X obj 553 102 unpack 0 0 0;
#X obj 596 228 spigot;
#X obj 596 192 f;
#X obj 553 153 t b f;
#X floatatom 811 132 5 0 0 0 - - -;
#X floatatom 880 132 5 0 0 0 - - -;
#X obj 811 103 unpack 0 0 0;
#X obj 854 229 spigot;
#X obj 854 261 vsl 8 64 0 1 0 0 empty empty empty 0 -9 0 10 -262144
-1 -1 0 1;
#X obj 854 193 f;
#X obj 811 154 t b f;
#X obj 811 193 == 5;
#X obj 854 339 * 127;
#X obj 854 360 i;
#X floatatom 854 382 5 0 0 0 - - -;
#X msg 854 406 send /noise \$1;
#X obj -48 136 vsl 8 64 -1 1 0 0 empty empty empty 0 -9 0 10 -262144
-1 -1 4383 1;
#X obj -48 209 expr $f1/2 + 0.5;
#X obj -48 233 * 127;
#X obj -48 254 i;
#X floatatom -48 276 5 0 0 0 - - -;
#X obj -48 107 cos;
#X msg -48 305 send /cos \$1;
#X msg -38 330 send /sin \$1;
#X obj 62 81 + 1;
#X msg 62 60 0.4;
#X obj -157 137 vsl 8 64 -1 1 0 0 empty empty empty 0 -9 0 10 -262144
-1 -1 3689 1;
#X obj -157 210 expr $f1/2 + 0.5;
#X obj -157 234 * 127;
#X obj -157 255 i;
#X floatatom -157 277 5 0 0 0 - - -;
#X obj -121 8 tgl 15 0 empty empty empty 17 7 0 10 -262144 -1 -1 1
1;
#X floatatom -76 74 5 0 0 0 - - -;
#X obj -121 74 + 1;
#X obj -157 109 sin;
#X msg -121 53 0.01;
#X obj -121 28 metro 10;
#X obj 553 192 == 6;
#X obj 498 165 spigot;
#X obj 498 129 f;
#X obj 455 129 == 2;
#X obj 421 165 vsl 8 64 0 1 0 0 empty empty empty 0 -9 0 10 -262144
-1 -1 2954 1;
#X obj 421 238 * 127;
#X obj 421 259 i;
#X floatatom 421 281 5 0 0 0 - - -;
#X obj 620 341 spigot;
#X obj 620 305 f;
#X obj 620 369 vsl 8 64 0 1 0 0 empty empty empty 0 -9 0 10 -262144
-1 -1 0 1;
#X obj 620 442 * 127;
#X obj 620 463 i;
#X floatatom 620 485 5 0 0 0 - - -;
#X msg 620 510 send /synth \$1;
#X floatatom 10 72 5 0 0 0 - - -;
#X obj -35 26 metro 10;
#X obj -35 72 + 1;
#X msg -35 51 0.005;
#X floatatom -118 352 5 0 0 0 - - -;
#X obj -118 375 > 0;
#X obj -118 399 change;
#X obj -118 423 bng 15 250 50 0 empty empty empty 17 7 0 10 -262144
-1 -1;
#X obj -74 468 + 1;
#X msg -74 442 1;
#X floatatom -43 467 5 0 0 0 - - -;
#X msg -74 499 send /pattern \$1;
#X obj -43 444 expr if($f1>2 \, 0 \, $f1);
#X obj 475 77 print;
#X obj 468 39 routeOSC /live;
#X obj 577 305 == 8;
#X connect 0 0 1 0;
#X connect 2 0 1 0;
#X connect 3 0 2 0;
#X connect 4 0 82 0;
#X connect 4 0 14 0;
#X connect 4 0 33 0;
#X connect 5 0 4 0;
#X connect 6 0 81 1;
#X connect 7 0 8 0;
#X connect 8 0 21 0;
#X connect 9 0 1 0;
#X connect 10 0 13 1;
#X connect 11 0 12 0;
#X connect 12 0 25 0;
#X connect 13 0 10 0;
#X connect 13 0 11 0;
#X connect 14 0 13 0;
#X connect 15 0 1 0;
#X connect 16 0 20 1;
#X connect 17 0 18 0;
#X connect 18 0 29 0;
#X connect 19 0 1 0;
#X connect 20 0 16 0;
#X connect 20 0 17 0;
#X connect 21 0 22 0;
#X connect 22 0 23 0;
#X connect 23 0 24 0;
#X connect 24 0 9 0;
#X connect 25 0 26 0;
#X connect 26 0 27 0;
#X connect 27 0 28 0;
#X connect 28 0 15 0;
#X connect 29 0 30 0;
#X connect 30 0 31 0;
#X connect 31 0 32 0;
#X connect 32 0 19 0;
#X connect 33 0 20 0;
#X connect 35 0 36 0;
#X connect 36 0 37 0;
#X connect 36 0 123 0;
#X connect 37 0 45 0;
#X connect 37 0 57 0;
#X connect 37 0 63 0;
#X connect 38 0 39 0;
#X connect 39 0 40 0;
#X connect 40 0 41 0;
#X connect 41 0 42 0;
#X connect 42 0 1 0;
#X connect 43 0 50 0;
#X connect 44 0 49 1;
#X connect 45 0 43 0;
#X connect 45 2 44 0;
#X connect 46 0 48 0;
#X connect 47 0 46 1;
#X connect 48 0 51 0;
#X connect 49 0 46 0;
#X connect 50 0 49 0;
#X connect 50 1 47 0;
#X connect 51 0 52 0;
#X connect 52 0 53 0;
#X connect 53 0 54 0;
#X connect 54 0 1 0;
#X connect 55 0 60 0;
#X connect 56 0 59 1;
#X connect 56 0 96 1;
#X connect 56 0 103 1;
#X connect 57 0 55 0;
#X connect 57 2 56 0;
#X connect 58 0 38 0;
#X connect 59 0 58 0;
#X connect 60 0 59 0;
#X connect 60 0 96 0;
#X connect 60 0 103 0;
#X connect 60 1 94 0;
#X connect 60 1 97 0;
#X connect 60 1 124 0;
#X connect 61 0 67 0;
#X connect 62 0 66 1;
#X connect 63 0 61 0;
#X connect 63 2 62 0;
#X connect 64 0 65 0;
#X connect 65 0 69 0;
#X connect 66 0 64 0;
#X connect 67 0 66 0;
#X connect 67 1 68 0;
#X connect 68 0 64 1;
#X connect 69 0 70 0;
#X connect 70 0 71 0;
#X connect 71 0 72 0;
#X connect 72 0 1 0;
#X connect 73 0 74 0;
#X connect 73 0 113 0;
#X connect 74 0 75 0;
#X connect 75 0 76 0;
#X connect 76 0 77 0;
#X connect 77 0 79 0;
#X connect 78 0 73 0;
#X connect 79 0 1 0;
#X connect 80 0 1 0;
#X connect 81 0 6 0;
#X connect 81 0 7 0;
#X connect 82 0 81 0;
#X connect 83 0 84 0;
#X connect 84 0 85 0;
#X connect 85 0 86 0;
#X connect 86 0 87 0;
#X connect 87 0 80 0;
#X connect 88 0 93 0;
#X connect 88 0 110 0;
#X connect 89 0 90 1;
#X connect 90 0 89 0;
#X connect 90 0 91 0;
#X connect 91 0 83 0;
#X connect 92 0 90 0;
#X connect 93 0 92 0;
#X connect 94 0 58 1;
#X connect 95 0 98 0;
#X connect 96 0 95 0;
#X connect 97 0 95 1;
#X connect 98 0 99 0;
#X connect 99 0 100 0;
#X connect 100 0 101 0;
#X connect 101 0 42 0;
#X connect 102 0 104 0;
#X connect 103 0 102 0;
#X connect 104 0 105 0;
#X connect 105 0 106 0;
#X connect 106 0 107 0;
#X connect 107 0 108 0;
#X connect 108 0 1 0;
#X connect 109 0 111 1;
#X connect 110 0 112 0;
#X connect 111 0 109 0;
#X connect 111 0 78 0;
#X connect 112 0 111 0;
#X connect 113 0 114 0;
#X connect 114 0 115 0;
#X connect 115 0 116 0;
#X connect 116 0 118 0;
#X connect 117 0 120 0;
#X connect 117 0 121 0;
#X connect 118 0 117 0;
#X connect 119 0 117 1;
#X connect 120 0 1 0;
#X connect 121 0 119 0;
#X connect 123 0 122 0;
#X connect 124 0 102 1;
