#N canvas 464 187 593 348 10;
#X declare -lib mrpeach;
#X obj 4 215 sendOSC;
#X msg 4 138 connect localhost 8000;
#X msg 19 164 disconnect;
#X obj 4 89 tgl 15 0 empty empty empty 17 7 0 10 -262144 -1 -1 1 1
;
#X obj 4 111 sel 1;
#X text 2 70 connect;
#X obj 29 190 r sOSC;
#X obj 258 296 s sOSC;
#X obj 2 36 import mrpeach;
#X text 3 255 OSC receive from Processing;
#X text 0 14 import osc library;
#X obj 3 322 print;
#X obj 3 298 unpackOSC;
#X obj 199 28 vsl 8 64 0 127 0 0 empty empty empty 0 -9 0 10 -262144
-1 -1 0 1;
#X obj 230 28 vsl 8 64 0 127 0 0 empty empty empty 0 -9 0 10 -262144
-1 -1 0 1;
#X obj 199 104 i;
#X obj 230 104 i;
#X obj 199 193 pack f f;
#X obj 258 193 pack f f;
#X msg 258 169 10;
#X obj 199 145 t b f;
#X obj 258 145 t b f;
#X obj 3 274 udpreceive 8001;
#X msg 199 217 send /arduino \$1 \$2;
#X msg 258 241 send /arduino \$1 \$2;
#X msg 199 170 11;
#X obj 329 103 i;
#X obj 329 192 pack f f;
#X obj 329 144 t b f;
#X msg 329 216 send /arduino \$1 \$2;
#X obj 329 77 tgl 15 0 empty empty empty 17 7 0 10 -262144 -1 -1 0
1;
#X obj 387 103 i;
#X obj 387 192 pack f f;
#X obj 387 144 t b f;
#X msg 387 238 send /arduino \$1 \$2;
#X obj 387 77 tgl 15 0 empty empty empty 17 7 0 10 -262144 -1 -1 0
1;
#X msg 329 169 13;
#X msg 387 169 12;
#X connect 1 0 0 0;
#X connect 2 0 0 0;
#X connect 3 0 4 0;
#X connect 4 0 1 0;
#X connect 4 1 2 0;
#X connect 6 0 0 0;
#X connect 12 0 11 0;
#X connect 13 0 15 0;
#X connect 14 0 16 0;
#X connect 15 0 20 0;
#X connect 16 0 21 0;
#X connect 17 0 23 0;
#X connect 18 0 24 0;
#X connect 19 0 18 0;
#X connect 20 0 25 0;
#X connect 20 1 17 1;
#X connect 21 0 19 0;
#X connect 21 1 18 1;
#X connect 22 0 12 0;
#X connect 23 0 7 0;
#X connect 24 0 7 0;
#X connect 25 0 17 0;
#X connect 26 0 28 0;
#X connect 27 0 29 0;
#X connect 28 0 36 0;
#X connect 28 1 27 1;
#X connect 29 0 7 0;
#X connect 30 0 26 0;
#X connect 31 0 33 0;
#X connect 32 0 34 0;
#X connect 33 0 37 0;
#X connect 33 1 32 1;
#X connect 34 0 7 0;
#X connect 35 0 31 0;
#X connect 36 0 27 0;
#X connect 37 0 32 0;
