#N canvas 169 55 1112 629 10;
#X declare -lib mrpeach;
#X obj -140 13 import mrpeach;
#X msg 385 524 send /piano \$1;
#X msg 496 524 send /noise \$1;
#X msg 278 524 send /synth \$1;
#X obj -142 41 cnv 15 160 350 empty empty empty 20 12 0 14 -233017
-66577 0;
#X msg -111 131 disconnect;
#X obj -132 191 sendOSC;
#X msg -132 106 connect localhost 7702;
#X obj -132 81 loadbang;
#X msg -108 297 disconnect;
#X obj -129 357 sendOSC;
#X obj -129 247 loadbang;
#X obj -100 324 r toLive;
#X obj -103 158 r toProcessing;
#X obj 45 325 udpreceive 9001;
#X obj 45 351 unpackOSC;
#X obj 45 376 routeOSC /live/track/meter;
#X obj 45 418 getParam 2;
#X msg 45 524 send /beat \$1;
#X obj 45 552 s toProcessing;
#X obj 150 418 getParam 6;
#X obj 278 552 s toProcessing;
#X obj 150 552 s toProcessing;
#X obj 385 418 getParam 3;
#X obj 385 552 s toProcessing;
#X obj 496 418 getParam 5;
#X obj 496 552 s toProcessing;
#X text 44 305 From Ableton Live;
#X text -133 221 To Ableton Live;
#X text -136 55 To Processing;
#X obj 34 41 cnv 15 900 250 empty empty empty 20 12 0 14 -233017 -66577
0;
#X obj 45 109 > 0;
#X obj 45 130 change;
#X obj 45 153 bng 15 250 50 0 empty empty empty 17 7 0 10 -262144 -1
-1;
#X obj 45 198 + 1;
#X msg 45 174 1;
#X floatatom 76 198 5 0 0 0 - - -;
#X floatatom 45 222 5 0 0 0 - - -;
#X obj 45 61 LFO 100;
#X obj 233 61 LFO 100;
#X msg 233 197 send /sin \$1;
#X obj 233 108 expr $f1/2 + 0.5;
#X obj 233 132 * 127;
#X obj 233 153 i;
#X floatatom 233 175 5 0 0 0 - - -;
#X obj 342 108 expr $f1/2 + 0.5;
#X obj 342 132 * 127;
#X obj 342 153 i;
#X floatatom 342 175 5 0 0 0 - - -;
#X obj 342 61 LFO 120;
#X msg 342 197 send /noi \$1;
#X obj 454 108 expr $f1/2 + 0.5;
#X obj 454 132 * 127;
#X obj 454 153 i;
#X floatatom 454 175 5 0 0 0 - - -;
#X obj 454 61 LFO 200;
#X msg 454 197 send /weight \$1;
#X obj 571 108 expr $f1/2 + 0.5;
#X obj 571 132 * 127;
#X obj 571 153 i;
#X floatatom 571 175 5 0 0 0 - - -;
#X obj 571 61 LFO 150;
#X msg 571 197 send /col \$1;
#X obj 45 267 s toProcessing;
#X obj 233 226 s toProcessing;
#X obj 342 226 s toProcessing;
#X obj 454 226 s toProcessing;
#X obj 571 226 s toProcessing;
#X msg 150 524 send /HeartBeat \$1;
#X msg 45 244 send /Pattern \$1;
#X obj 767 367 vsl 8 64 0 1 0 0 empty empty empty 0 -9 0 10 -262144
-1 -1 0 1;
#X floatatom 812 479 5 0 0 0 - - -;
#X obj 767 449 t b f;
#X obj 767 502 pack 0 f;
#X msg 767 543 send /live/volume \$1 \$2;
#X text 775 521 track0のvolumeをコントロール;
#X text 781 422 - 0;
#X text 781 357 - 1;
#X floatatom 985 478 5 0 0 0 - - -;
#X obj 940 448 t b f;
#X obj 940 501 pack 0 f;
#X text 954 520 track0のpanをコントロール;
#X msg 940 542 send /live/pan \$1 \$2;
#X obj 940 389 knob 32 32 -1 1 0 0 empty empty empty 0 -8 0 8 -262144
-1 -1 0 1;
#X obj 767 569 s toLive;
#X msg -129 272 connect localhost 9000;
#X obj 940 568 s toLive;
#X obj 700 289 s toLive;
#X text 708 249 scene control;
#X obj 700 101 > 0;
#X obj 700 122 change;
#X obj 700 145 bng 15 250 50 0 empty empty empty 17 7 0 10 -262144
-1 -1;
#X obj 700 190 + 1;
#X msg 700 166 1;
#X floatatom 731 190 5 0 0 0 - - -;
#X floatatom 700 214 5 0 0 0 - - -;
#X msg 700 266 send /live/play/scene \$1;
#X obj 700 53 LFO 1000;
#X obj 278 418 getParam 4;
#X obj 76 174 expr if($f1>2 \, -1 \, $f1);
#X obj 758 312 s toProcessing;
#X msg 758 289 send /scene \$1;
#X obj 700 237 i;
#X msg 600 524 send /noise \$1;
#X obj 600 552 s toProcessing;
#X obj 600 418 getParam 11;
#X msg 331 686 send /synth \$1;
#X obj 331 714 s toProcessing;
#X obj 331 580 getParam 8;
#X obj 731 166 expr if($f1>16 \, -1 \, $f1);
#X connect 1 0 24 0;
#X connect 2 0 26 0;
#X connect 3 0 21 0;
#X connect 5 0 6 0;
#X connect 7 0 6 0;
#X connect 8 0 7 0;
#X connect 9 0 10 0;
#X connect 11 0 85 0;
#X connect 12 0 10 0;
#X connect 13 0 6 0;
#X connect 14 0 15 0;
#X connect 15 0 16 0;
#X connect 16 0 17 0;
#X connect 16 0 20 0;
#X connect 16 0 25 0;
#X connect 16 0 23 0;
#X connect 16 0 98 0;
#X connect 16 0 105 0;
#X connect 16 0 108 0;
#X connect 17 0 18 0;
#X connect 18 0 19 0;
#X connect 20 0 68 0;
#X connect 23 0 1 0;
#X connect 25 0 2 0;
#X connect 31 0 32 0;
#X connect 32 0 33 0;
#X connect 33 0 35 0;
#X connect 34 0 37 0;
#X connect 34 0 99 0;
#X connect 35 0 34 0;
#X connect 36 0 34 1;
#X connect 37 0 69 0;
#X connect 38 0 31 0;
#X connect 39 0 41 0;
#X connect 40 0 64 0;
#X connect 41 0 42 0;
#X connect 42 0 43 0;
#X connect 43 0 44 0;
#X connect 44 0 40 0;
#X connect 45 0 46 0;
#X connect 46 0 47 0;
#X connect 47 0 48 0;
#X connect 48 0 50 0;
#X connect 49 0 45 0;
#X connect 50 0 65 0;
#X connect 51 0 52 0;
#X connect 52 0 53 0;
#X connect 53 0 54 0;
#X connect 54 0 56 0;
#X connect 55 0 51 0;
#X connect 56 0 66 0;
#X connect 57 0 58 0;
#X connect 58 0 59 0;
#X connect 59 0 60 0;
#X connect 60 0 62 0;
#X connect 61 0 57 0;
#X connect 62 0 67 0;
#X connect 68 0 22 0;
#X connect 69 0 63 0;
#X connect 70 0 72 0;
#X connect 71 0 73 1;
#X connect 72 0 73 0;
#X connect 72 1 71 0;
#X connect 73 0 74 0;
#X connect 74 0 84 0;
#X connect 78 0 80 1;
#X connect 79 0 80 0;
#X connect 79 1 78 0;
#X connect 80 0 82 0;
#X connect 82 0 86 0;
#X connect 83 0 79 0;
#X connect 85 0 10 0;
#X connect 89 0 90 0;
#X connect 90 0 91 0;
#X connect 91 0 93 0;
#X connect 92 0 95 0;
#X connect 92 0 109 0;
#X connect 93 0 92 0;
#X connect 94 0 92 1;
#X connect 95 0 102 0;
#X connect 96 0 87 0;
#X connect 97 0 89 0;
#X connect 98 0 3 0;
#X connect 99 0 36 0;
#X connect 101 0 100 0;
#X connect 102 0 96 0;
#X connect 102 0 101 0;
#X connect 103 0 104 0;
#X connect 105 0 103 0;
#X connect 106 0 107 0;
#X connect 108 0 106 0;
#X connect 109 0 94 0;
